<svg width="43" height="45" viewBox="0 0 43 45" fill="none" xmlns="http://www.w3.org/2000/svg">
<ellipse cx="21.5" cy="22.5" rx="21.5" ry="22.5" fill="#3056D3"/>
<g clip-path="url(#clip0_121_53335)">
<path d="M26.1285 32.1562C23.6799 32.1562 20.1563 30.3125 16.9313 27.0937C12.5417 22.7187 10.6604 17.8437 12.5715 15.7187C12.6611 15.625 12.7507 15.5625 12.8701 15.5L15.3785 14.0312C15.9458 13.7187 16.6625 13.875 17.0208 14.4062L18.8424 17.125C19.0215 17.4062 19.1111 17.75 19.0514 18.0625C18.9917 18.4062 18.8125 18.6875 18.5438 18.875L17.4389 19.625C17.3792 19.6562 17.3792 19.6875 17.3792 19.7187C17.3792 19.75 17.3792 19.7812 17.409 19.8125C18.2153 21.0625 20.5146 24.25 24.1576 26.5312C24.2472 26.5937 24.3965 26.5625 24.4563 26.5L25.2326 25.4062C25.6208 24.8437 26.3674 24.7187 26.9347 25.0937L29.6521 26.9062C30.2194 27.2812 30.3986 28.0312 30.0403 28.625L28.5472 31.125C28.4875 31.25 28.3979 31.3437 28.3083 31.4062C27.741 31.9375 26.9944 32.1562 26.1285 32.1562ZM16.0056 14.9375C15.9757 14.9375 15.9458 14.9375 15.8861 14.9687L13.3778 16.4375C13.3479 16.4687 13.3479 16.4687 13.3181 16.4687C12.0639 17.875 13.4972 22.1562 17.6778 26.3125C21.8583 30.4687 26.1882 31.9062 27.6215 30.625C27.6215 30.625 27.6215 30.625 27.6514 30.5937L29.1444 28.0937C29.1743 28.0312 29.1743 27.9375 29.0847 27.875L26.3674 26.0625C26.2778 26 26.1285 26.0312 26.0688 26.0937L25.2924 27.1875C24.9042 27.7187 24.1875 27.875 23.6201 27.5312C19.7681 25.125 17.3792 21.7812 16.5431 20.4375C16.3639 20.1562 16.3042 19.8437 16.3639 19.5C16.4236 19.1875 16.6028 18.875 16.8715 18.7187L17.9764 17.9375C18.0361 17.9062 18.0361 17.875 18.0361 17.8437C18.0361 17.8125 18.0361 17.7812 18.0063 17.7187L16.1847 15C16.1549 14.9687 16.0653 14.9375 16.0056 14.9375Z" fill="white"/>
</g>
<defs>
<clipPath id="clip0_121_53335">
<rect width="19.1111" height="20" fill="white" transform="translate(11.4667 13)"/>
</clipPath>
</defs>
</svg>
